<mxfile host="app.diagrams.net" agent="Mozilla/5.0 (Macintosh; Intel Mac OS X 10.15; rv:143.0) Gecko/20100101 Firefox/143.0" version="28.2.7">
  <diagram name="Page-1" id="P4iL59Z2gfnSDanatWv0">
    <mxGraphModel grid="1" page="1" gridSize="10" guides="1" tooltips="1" connect="1" arrows="1" fold="1" pageScale="1" pageWidth="850" pageHeight="1100" math="0" shadow="0">
      <root>
        <mxCell id="0" />
        <mxCell id="1" parent="0" />
        <mxCell id="5ModeE65CEk_O3YTIBPC-6" value="" style="ellipse;shape=cloud;whiteSpace=wrap;html=1;" vertex="1" parent="1">
          <mxGeometry x="300" y="20" width="860" height="620" as="geometry" />
        </mxCell>
        <mxCell id="ZhmCGEbtK2EE7ppnYEC_-1" value="D - EBS" style="outlineConnect=0;dashed=0;verticalLabelPosition=bottom;verticalAlign=top;align=center;html=1;shape=mxgraph.aws3.volume;fillColor=#E05243;gradientColor=none;" vertex="1" parent="1">
          <mxGeometry x="478.75" y="327.8" width="52.5" height="75" as="geometry" />
        </mxCell>
        <mxCell id="5ModeE65CEk_O3YTIBPC-4" style="edgeStyle=orthogonalEdgeStyle;rounded=0;orthogonalLoop=1;jettySize=auto;html=1;flowAnimation=1;" edge="1" parent="1" source="5ModeE65CEk_O3YTIBPC-1" target="ZhmCGEbtK2EE7ppnYEC_-1">
          <mxGeometry relative="1" as="geometry" />
        </mxCell>
        <mxCell id="5ModeE65CEk_O3YTIBPC-1" value="" style="verticalLabelPosition=bottom;aspect=fixed;html=1;shape=mxgraph.salesforce.web;fillColorStyles=fillColor2,fillColor3,fillColor4;fillColor2=#032d60;fillColor3=#0d9dda;fillColor4=#ffffff;fillColor=none;strokeColor=none;" vertex="1" parent="1">
          <mxGeometry x="250" y="341.6" width="60" height="47.400000000000006" as="geometry" />
        </mxCell>
        <mxCell id="5ModeE65CEk_O3YTIBPC-2" value="Actor" style="shape=umlActor;verticalLabelPosition=bottom;verticalAlign=top;html=1;outlineConnect=0;" vertex="1" parent="1">
          <mxGeometry x="160" y="330" width="30" height="60" as="geometry" />
        </mxCell>
        <mxCell id="5ModeE65CEk_O3YTIBPC-3" style="edgeStyle=orthogonalEdgeStyle;rounded=0;orthogonalLoop=1;jettySize=auto;html=1;entryX=-0.033;entryY=0.394;entryDx=0;entryDy=0;entryPerimeter=0;flowAnimation=1;" edge="1" parent="1">
          <mxGeometry relative="1" as="geometry">
            <mxPoint x="190" y="362" as="sourcePoint" />
            <mxPoint x="248.01999999999998" y="362.31082102148775" as="targetPoint" />
          </mxGeometry>
        </mxCell>
        <mxCell id="5ModeE65CEk_O3YTIBPC-5" value="Send file" style="text;html=1;whiteSpace=wrap;strokeColor=none;fillColor=none;align=center;verticalAlign=middle;rounded=0;" vertex="1" parent="1">
          <mxGeometry x="340" y="360" width="60" height="30" as="geometry" />
        </mxCell>
        <mxCell id="5ModeE65CEk_O3YTIBPC-10" style="edgeStyle=orthogonalEdgeStyle;rounded=0;orthogonalLoop=1;jettySize=auto;html=1;flowAnimation=1;" edge="1" parent="1" source="5ModeE65CEk_O3YTIBPC-8" target="ZhmCGEbtK2EE7ppnYEC_-1">
          <mxGeometry relative="1" as="geometry" />
        </mxCell>
        <mxCell id="5ModeE65CEk_O3YTIBPC-8" value="EC2" style="verticalLabelPosition=bottom;html=1;verticalAlign=top;strokeWidth=1;align=center;outlineConnect=0;dashed=0;outlineConnect=0;shape=mxgraph.aws3d.application_server;fillColor=#ECECEC;strokeColor=#5E5E5E;aspect=fixed;strokeColor2=#292929;" vertex="1" parent="1">
          <mxGeometry x="640" y="303.3" width="123" height="124" as="geometry" />
        </mxCell>
        <mxCell id="5ModeE65CEk_O3YTIBPC-11" value="E - EBS" style="outlineConnect=0;dashed=0;verticalLabelPosition=bottom;verticalAlign=top;align=center;html=1;shape=mxgraph.aws3.volume;fillColor=#E05243;gradientColor=none;" vertex="1" parent="1">
          <mxGeometry x="675.25" y="490" width="52.5" height="75" as="geometry" />
        </mxCell>
        <mxCell id="5ModeE65CEk_O3YTIBPC-12" style="edgeStyle=orthogonalEdgeStyle;rounded=0;orthogonalLoop=1;jettySize=auto;html=1;entryX=0.5;entryY=0;entryDx=0;entryDy=0;entryPerimeter=0;flowAnimation=1;" edge="1" parent="1" source="5ModeE65CEk_O3YTIBPC-8" target="5ModeE65CEk_O3YTIBPC-11">
          <mxGeometry relative="1" as="geometry" />
        </mxCell>
        <mxCell id="5ModeE65CEk_O3YTIBPC-13" value="RDS" style="outlineConnect=0;dashed=0;verticalLabelPosition=bottom;verticalAlign=top;align=center;html=1;shape=mxgraph.aws3.rds;fillColor=#2E73B8;gradientColor=none;" vertex="1" parent="1">
          <mxGeometry x="666" y="120" width="72" height="81" as="geometry" />
        </mxCell>
        <mxCell id="5ModeE65CEk_O3YTIBPC-14" style="edgeStyle=orthogonalEdgeStyle;rounded=0;orthogonalLoop=1;jettySize=auto;html=1;entryX=0.5;entryY=1;entryDx=0;entryDy=0;entryPerimeter=0;flowAnimation=1;" edge="1" parent="1" source="5ModeE65CEk_O3YTIBPC-8" target="5ModeE65CEk_O3YTIBPC-13">
          <mxGeometry relative="1" as="geometry" />
        </mxCell>
        <mxCell id="5ModeE65CEk_O3YTIBPC-15" value="AWS" style="text;html=1;whiteSpace=wrap;strokeColor=none;fillColor=none;align=center;verticalAlign=middle;rounded=0;" vertex="1" parent="1">
          <mxGeometry x="930" y="145.5" width="60" height="30" as="geometry" />
        </mxCell>
      </root>
    </mxGraphModel>
  </diagram>
</mxfile>
